<svg width="14" height="25" viewBox="0 0 14 25" fill="none" xmlns="http://www.w3.org/2000/svg">
<path d="M12.6688 12.3012C12.6695 12.6828 12.5339 13.0526 12.2854 13.3465L3.95209 23.1457C3.66919 23.4792 3.26267 23.689 2.82196 23.7288C2.38125 23.7686 1.94245 23.6352 1.60209 23.358C1.26173 23.0808 1.04769 22.6825 1.00705 22.2506C0.96642 21.8187 1.10252 21.3887 1.38542 21.0552L8.85209 12.3012L1.65209 3.54724C1.51364 3.38018 1.41026 3.18796 1.34787 2.98162C1.28548 2.77529 1.26533 2.5589 1.28856 2.3449C1.31179 2.13091 1.37795 1.92352 1.48324 1.73466C1.58853 1.5458 1.73087 1.3792 1.90209 1.24442C2.07345 1.09485 2.2745 0.981574 2.49262 0.911685C2.71074 0.841796 2.94125 0.816803 3.16968 0.838268C3.39812 0.859734 3.61958 0.927195 3.82017 1.03643C4.02077 1.14566 4.19618 1.29432 4.33542 1.47307L12.3854 11.2723C12.5946 11.5746 12.6944 11.9369 12.6688 12.3012Z" fill="#363431" stroke="white"/>
</svg>
