<svg width="14" height="25" viewBox="0 0 14 25" fill="none" xmlns="http://www.w3.org/2000/svg">
<path d="M1.00394 12.3012C1.00318 12.6828 1.13881 13.0526 1.38728 13.3465L9.72061 23.1457C10.0035 23.4792 10.41 23.689 10.8507 23.7288C11.2914 23.7686 11.7302 23.6352 12.0706 23.358C12.411 23.0808 12.625 22.6825 12.6656 22.2506C12.7063 21.8187 12.5702 21.3887 12.2873 21.0552L4.82061 12.3012L12.0206 3.54724C12.1591 3.38018 12.2624 3.18796 12.3248 2.98162C12.3872 2.77529 12.4074 2.5589 12.3841 2.34491C12.3609 2.13091 12.2947 1.92352 12.1895 1.73466C12.0842 1.5458 11.9418 1.3792 11.7706 1.24442C11.5992 1.09485 11.3982 0.981574 11.1801 0.911685C10.962 0.841796 10.7314 0.816803 10.503 0.838268C10.2746 0.859734 10.0531 0.927195 9.85252 1.03643C9.65193 1.14566 9.47652 1.29432 9.33728 1.47307L1.28728 11.2723C1.07808 11.5746 0.978325 11.9369 1.00394 12.3012Z" fill="#363431" stroke="white"/>
</svg>
