<svg width="88" height="80" viewBox="0 0 88 80" fill="none" xmlns="http://www.w3.org/2000/svg">
<path d="M74.5203 28.7767C66.6024 25.4207 55.9683 23.2484 44.611 22.6552C42.8619 22.5504 41.11 22.4989 39.3578 22.5009C47.7542 12.2867 56.7623 5.42857 62.6952 5.20646C63.859 5.16312 64.8487 5.40419 65.6426 5.9107C68.2067 7.57648 68.9136 12.303 67.6112 18.8768C67.4698 19.7787 68.049 20.6671 68.9136 20.8378C69.1284 20.882 69.3499 20.8835 69.5654 20.8422C69.7808 20.8009 69.9858 20.7175 70.1688 20.5969C70.3518 20.4764 70.509 20.3209 70.6314 20.1396C70.7538 19.9583 70.8391 19.7546 70.8822 19.5404C72.5109 11.3035 71.3064 5.64255 67.4698 3.14793C66.0967 2.24596 64.4245 1.81801 62.5674 1.89114C55.1472 2.17283 44.6681 10.2011 35.0509 22.5604C31.1296 22.6613 27.2184 23.0051 23.34 23.5897C21.0017 13.121 21.9234 5.61546 25.4935 3.80883C25.9856 3.54067 26.5267 3.41608 27.1494 3.35649C29.6835 3.16147 33.1666 4.78392 36.9787 7.94214C37.6856 8.51908 38.7324 8.44865 39.3143 7.72817C39.4552 7.56229 39.5617 7.37019 39.6275 7.163C39.6933 6.95582 39.7172 6.73768 39.6977 6.52124C39.6782 6.3048 39.6158 6.09436 39.514 5.90214C39.4123 5.70992 39.2732 5.53975 39.1049 5.40148C34.5288 1.63382 30.3252 -0.213443 26.8802 0.0384568C25.8674 0.117482 24.8785 0.385794 23.9654 0.829367C19.6449 3.02875 17.9183 9.23685 18.995 18.3079C19.2479 20.1823 19.5742 22.1433 20.0582 24.1477C8.15969 26.5177 0.587204 31.274 0.260921 37.2383C0.0325226 41.4719 3.39052 45.4914 9.97328 48.8772C10.1674 48.9781 10.3797 49.0396 10.5979 49.0581C10.816 49.0765 11.0357 49.0517 11.2442 48.9849C11.4526 48.9181 11.6457 48.8108 11.8121 48.6691C11.9785 48.5273 12.1151 48.3541 12.2138 48.1594C12.3152 47.9658 12.3769 47.754 12.3953 47.5363C12.4137 47.3187 12.3883 47.0995 12.3208 46.8918C12.2532 46.684 12.1447 46.4917 12.0017 46.3261C11.8587 46.1606 11.684 46.0251 11.4878 45.9275C6.23462 43.2325 3.40412 40.1988 3.5727 37.4225C3.75759 33.514 10.0005 29.5053 20.8358 27.379C21.8802 31.1702 23.1514 34.8958 24.6424 38.5358C20.9473 45.3506 18.269 52.0679 16.8986 58.0349C14.8567 66.9381 15.9497 73.2871 20.0119 75.909C21.3143 76.7541 22.8288 77.1793 24.5282 77.1793C27.9134 77.1793 32.0192 75.5135 36.666 72.2145C36.8436 72.0882 36.9945 71.9283 37.1102 71.7439C37.2258 71.5595 37.3038 71.3543 37.3398 71.1399C37.3757 70.9254 37.369 70.7061 37.3198 70.4942C37.2707 70.2824 37.1802 70.0823 37.0534 69.9054C36.9267 69.7284 36.7662 69.5781 36.5811 69.4629C36.396 69.3477 36.1899 69.27 35.9747 69.2342C35.7594 69.1983 35.5392 69.2051 35.3266 69.254C35.114 69.3029 34.9131 69.3931 34.7355 69.5194C29.1424 73.5092 24.4276 74.8364 21.8228 73.1408C19.0739 71.3504 18.4648 66.131 20.1669 58.7825C21.3116 53.7743 23.4515 48.2 26.3554 42.4578C27.076 44.0396 27.8427 45.6187 28.6367 47.2006C33.8056 57.3009 40.1354 66.0741 46.4381 71.9328C51.4656 76.5888 56.1396 79.0157 59.9762 79.0157C61.2514 79.0157 62.4423 78.7449 63.5191 78.2113C67.6656 76.0959 69.4683 70.2263 68.5873 61.6916C67.7825 53.6931 64.7508 43.9557 60.0496 34.2372C59.8576 33.845 59.5185 33.5437 59.1054 33.3983C58.6924 33.2528 58.2386 33.275 57.8417 33.4598C57.6432 33.5533 57.4651 33.6849 57.3177 33.8471C57.1703 34.0093 57.0564 34.1988 56.9827 34.4049C56.9089 34.611 56.8767 34.8295 56.8879 35.048C56.8991 35.2665 56.9534 35.4806 57.0478 35.6782C66.7901 55.906 67.4861 72.4691 62.0182 75.2481C56.2402 78.195 42.346 66.7404 31.5977 45.7054C30.4156 43.4262 29.3245 41.1013 28.3267 38.7362C29.5584 36.5504 30.8608 34.3347 32.3074 32.1353C33.7146 29.9861 35.1918 27.8831 36.7367 25.8297H38.1696C40.1246 25.8297 42.2481 25.8731 44.456 26.0004C68.1197 27.2436 84.2381 35.2529 83.9118 41.6588C83.7704 44.4215 80.5538 47.2168 75.1157 49.3187C74.7214 49.4894 74.4087 49.8056 74.2432 50.201C74.0778 50.5963 74.0723 51.0401 74.2281 51.4393C74.3838 51.8386 74.6886 52.1623 75.0787 52.3426C75.4687 52.5229 75.9136 52.5458 76.3203 52.4065C83.2293 49.7412 87.0251 46.0711 87.2399 41.8294C87.4927 37.0298 83.0063 32.4035 74.5502 28.82V28.7902L74.5203 28.7767ZM29.5013 30.3016C28.543 31.7781 27.6218 33.2782 26.7388 34.8006C25.7342 32.1791 24.8603 29.5096 24.1204 26.8021C26.8937 26.3782 29.6856 26.0863 32.4868 25.9272C31.4535 27.3561 30.4624 28.8149 29.5149 30.3016V30.261L29.5013 30.3016ZM43.7327 34.5487C37.0901 34.5487 37.0901 44.4811 43.7327 44.4811C50.3889 44.4811 50.3889 34.5487 43.7327 34.5487Z" fill="#C7DF9E"/>
</svg>
