<svg width="67" height="97" viewBox="0 0 67 97" fill="none" xmlns="http://www.w3.org/2000/svg">
<path fill-rule="evenodd" clip-rule="evenodd" d="M33.5 10.6407C19.9665 10.6407 10.5909 20.3582 10.5909 32.2032C10.5909 37.8612 13.0193 41.5469 16.2265 45.4512L17.4522 46.906C18.7294 48.424 20.144 50.1029 21.3066 51.7819C22.9332 54.1452 24.3822 56.934 24.8633 60.3495C24.9779 61.459 24.6599 62.57 23.976 63.4491C23.292 64.3282 22.2954 64.907 21.1954 65.064C20.0954 65.2211 18.9776 64.9441 18.0767 64.2912C17.1758 63.6383 16.5619 62.6603 16.364 61.5627C16.1349 59.9412 15.4305 58.4174 14.2449 56.6924C13.2758 55.338 12.2398 54.033 11.1407 52.7825C10.6596 52.2075 10.1499 51.6037 9.60582 50.9424C6.01482 46.5782 2 40.9202 2 32.2032C2 15.2982 15.5335 2.01575 33.5 2.01575C51.4665 2.01575 65 15.2982 65 32.2032C65 40.9202 60.9852 46.5782 57.3942 50.9424C56.8501 51.6037 56.3404 52.2076 55.8593 52.7767C54.6737 54.1855 53.6657 55.3814 52.7608 56.6924C51.5695 58.4174 50.8708 59.9412 50.6417 61.5627C50.562 62.1234 50.3731 62.6628 50.0857 63.1501C49.7983 63.6375 49.4182 64.0632 48.9669 64.4031C48.5157 64.7429 48.0022 64.9902 47.4557 65.1308C46.9093 65.2714 46.3406 65.3027 45.7821 65.2226C45.2237 65.1425 44.6864 64.9528 44.201 64.6643C43.7156 64.3758 43.2915 63.9942 42.953 63.5411C42.6145 63.0881 42.3682 62.5725 42.2281 62.0239C42.0881 61.4753 42.057 60.9044 42.1367 60.3437C42.6178 56.934 44.0668 54.1452 45.6934 51.7819C46.856 50.1029 48.2706 48.424 49.5478 46.906C49.9774 46.4 50.3897 45.9112 50.7677 45.4512C53.9807 41.5469 56.4091 37.8612 56.4091 32.2032C56.4091 20.3582 47.0335 10.6407 33.5 10.6407ZM22.0455 89.7032C22.0455 88.5595 22.498 87.4626 23.3036 86.6538C24.1091 85.8451 25.2017 85.3907 26.3409 85.3907H40.6591C41.7983 85.3907 42.8909 85.8451 43.6964 86.6538C44.502 87.4626 44.9545 88.5595 44.9545 89.7032C44.9545 90.8469 44.502 91.9438 43.6964 92.7526C42.8909 93.5613 41.7983 94.0157 40.6591 94.0157H26.3409C25.2017 94.0157 24.1091 93.5613 23.3036 92.7526C22.498 91.9438 22.0455 90.8469 22.0455 89.7032ZM20.6136 71.0157C19.4744 71.0157 18.3818 71.4701 17.5763 72.2788C16.7707 73.0876 16.3182 74.1845 16.3182 75.3282C16.3182 76.4719 16.7707 77.5688 17.5763 78.3776C18.3818 79.1863 19.4744 79.6407 20.6136 79.6407H46.3864C47.5256 79.6407 48.6182 79.1863 49.4237 78.3776C50.2293 77.5688 50.6818 76.4719 50.6818 75.3282C50.6818 74.1845 50.2293 73.0876 49.4237 72.2788C48.6182 71.4701 47.5256 71.0157 46.3864 71.0157H20.6136Z" fill="#C7DF9E" stroke="white" stroke-width="4"/>
</svg>
