<svg width="93" height="82" viewBox="0 0 93 82" fill="none" xmlns="http://www.w3.org/2000/svg">
<path d="M44.8074 39.6903C45.8768 40.8031 47.6184 40.8031 48.703 39.6903L65.3396 22.5164C70.1671 17.5236 69.8921 9.25247 64.4841 4.65071C59.7788 0.635452 52.7667 1.3573 48.4586 5.80867L46.7476 7.56817L45.0518 5.82371C40.7437 1.3573 33.7316 0.635452 29.0263 4.65071C23.6336 9.25247 23.3433 17.5236 28.1708 22.5164L44.8074 39.6903ZM89.1105 51.3601C87.3078 49.751 84.4969 49.8562 82.6025 51.3601L68.4866 62.4735C66.7604 63.842 64.6063 64.5789 62.3759 64.5789H44.3033C42.9589 64.5789 41.859 63.4961 41.859 62.1727C41.859 60.8493 42.9589 59.7666 44.3033 59.7666H56.2651C58.6941 59.7666 60.9551 58.1274 61.3523 55.7663C61.8565 52.7586 59.5038 50.142 56.5248 50.142H32.0817C27.9569 50.142 23.9697 51.5405 20.7615 54.0971L13.6577 59.7666H5.19431C3.84994 59.7666 2.75 60.8493 2.75 62.1727V76.6096C2.75 77.933 3.84994 79.0157 5.19431 79.0157H59.7024C61.9176 79.0157 64.0716 78.2789 65.8132 76.9104L88.9119 58.7139C91.234 56.8942 91.4173 53.4053 89.1105 51.3601Z" stroke="#C7DF9E" stroke-width="4"/>
</svg>
