<svg width="105" height="97" viewBox="0 0 105 97" fill="none" xmlns="http://www.w3.org/2000/svg">
<path d="M73 82.0157L93 48.0157L73 14.0157H33L13 48.0157L33 82.0157H73Z" stroke="#C7DF9E" stroke-width="4" stroke-linejoin="round"/>
<path d="M53 58.0157C55.6522 58.0157 58.1957 56.9622 60.0711 55.0868C61.9464 53.2115 63 50.6679 63 48.0157C63 45.3636 61.9464 42.82 60.0711 40.9447C58.1957 39.0693 55.6522 38.0157 53 38.0157C50.3478 38.0157 47.8043 39.0693 45.9289 40.9447C44.0536 42.82 43 45.3636 43 48.0157C43 50.6679 44.0536 53.2115 45.9289 55.0868C47.8043 56.9622 50.3478 58.0157 53 58.0157Z" stroke="#C7DF9E" stroke-width="4" stroke-linejoin="round"/>
</svg>
