<svg width="79" height="81" viewBox="0 0 79 81" fill="none" xmlns="http://www.w3.org/2000/svg">
<path d="M76.4522 28.9683C76.487 29.1339 76.517 29.3057 76.4827 29.4714C76.407 29.8363 76.097 29.6949 75.8216 29.5767C73.8087 28.7128 71.7888 27.8672 69.7966 26.9581C69.1675 26.6758 68.9219 26.8 68.6101 27.4225C60.9018 42.8574 50.3238 55.7484 36.1655 65.4068C27.0063 71.6812 16.6254 75.8473 5.73949 77.6175C4.83442 77.7671 3.92521 77.8998 3.01462 78.0142V78.0142C2.75076 78.0439 2.64423 77.5318 2.88556 77.421C2.88855 77.4196 2.89156 77.4183 2.89459 77.417C20.6924 69.9763 33.8987 57.2306 43.5675 40.4322C47.1961 34.1278 49.9444 27.4141 52.0719 20.4335C52.3657 19.4722 52.3616 19.4666 51.4427 19.0699C49.8547 18.3867 48.2626 17.7119 46.6801 17.0174V17.0174C46.3536 16.8742 46.3069 16.3153 46.6111 16.1295V16.1295C54.1855 11.4965 61.7627 6.86914 69.3427 2.24744C69.969 1.8663 70.0946 1.92276 70.2684 2.66246C72.3315 11.4315 74.3928 20.2001 76.4522 28.9683V28.9683Z" stroke="#C7DF9E" stroke-width="4"/>
</svg>
