<svg width="161" height="140" viewBox="0 0 161 161" fill="none" xmlns="http://www.w3.org/2000/svg"><mask id="a" style="mask-type:alpha" maskUnits="userSpaceOnUse" x="0" y="0" width="161" height="161"><circle cx="80.5" cy="80.5" r="80.5" fill="#fff"/></mask><g mask="url(#a)" fill="#000"><path d="M155.552 34.204c-16.752 2.666-28.904 10.839-35.88 24.164-2.99 5.642-4.025 9.595-4.754 17.901-.23 2.621-.652 5.464-.958 6.308-1.227 3.331-4.255 6.174-10.542 9.817-5.482 3.153-10.197 6.796-14.989 11.549-4.638 4.619-10.12 4.93-15.678.977-.959-.667-2.875-2.266-4.294-3.554-2.683-2.443-5.098-4.13-11.423-7.995-8.625-5.286-10.082-7.33-10.772-15.058-.843-9.64-1.955-13.593-5.788-20.167-6.44-11.06-15.602-17.856-28.674-21.188-8.05-2.087-15.525-2.665-15.525-1.199 0 .489.498.71 1.916.8 3.987.222 11.232 1.51 14.874 2.576 13.762 4.042 23.422 12.526 28.75 25.186 1.649 3.909 2.415 7.729 2.914 14.836.575 7.684 1.725 13.547 3.718 18.7.498 1.333.92 2.71.92 3.021 0 1.066-1.418.666-2.415-.667-1.38-1.91-4.562-9.372-6.517-15.191-2.836-8.484-4.523-11.682-6.823-13.06-1.035-.621-2.262-.488-2.262.223 0 .177.652.888 1.457 1.599 2.453 2.177 3.833 4.664 5.712 10.527 3.258 10.172 7.053 17.812 9.315 18.834 1.341.622 2.031 1.599 6.631 9.328 5.137 8.617 8.97 17.235 10.236 23.009.421 1.91.766 3.82.766 4.264 0 1.422-.766 1.377-1.456-.088-1.572-3.332-5.367-9.817-7.935-13.504-7.744-11.06-19.36-22.831-25.608-25.941-1.495-.755-1.801-1.11-2.3-3.02-.345-1.155-1.495-5.42-2.568-9.462-3.987-14.702-6.9-21.942-10.043-25.14-2.876-2.932-9.507-4.71-17.75-4.798-8.624-.089-13.34.755-12.534 2.265.23.4.92.445 2.951.09 3.68-.667 13.647-.667 16.676 0 1.38.31 3.68.932 5.136 1.42 5.636 1.955 8.05 6.575 13.647 26.12 1.879 6.573 3.642 12.392 3.91 12.881.269.533 1.112 1.155 1.84 1.377 3.566 1.11 9.622 6.396 17.02 14.836 7.17 8.173 11.5 14.347 15.143 21.676 2.07 4.22 3.258 5.153 4.676 3.643.729-.756.767-1.155.537-3.509-.307-3.421-1.687-8.174-3.68-12.704-.843-1.999-1.457-3.687-1.38-3.776.46-.533 7.168 5.73 10.887 10.216 4.447 5.375 5.712 6.219 6.593 4.309.46-.933-.23-4.22-1.265-5.997-.575-1.066-.575-1.066.537-.577.882.4 1.265.355 1.802-.222.383-.355 1.265-.8 1.916-.933l1.265-.266-.766 1.643c-1.035 2.221-1.342 4.398-.767 5.197.92 1.288 2.147.755 4.102-1.688 3.68-4.619 6.977-8.128 9.966-10.66 1.687-1.377 3.182-2.532 3.297-2.532.115 0-.536 1.865-1.456 4.086-3.259 7.996-4.486 14.437-3.106 16.036 1.38 1.599 2.607.666 4.639-3.465 3.143-6.53 9.2-15.191 15.487-22.165 7.628-8.573 10.618-11.194 15.64-13.903 3.412-1.822 3.182-1.289 7.207-15.68 3.872-13.948 6.785-20.922 9.775-23.498 1.687-1.422 7.092-3.02 12.19-3.598 4.332-.489 6.095-.444 15.219.577.92.09 1.226-1.243.383-1.643-.345-.133-2.99-.489-5.903-.755-6.172-.622-12.65-.09-17.941 1.465-7.666 2.221-9.966 6.486-16.79 31.45-1.15 4.263-2.223 7.95-2.415 8.217-.153.222-1.38 1.066-2.76 1.821-3.987 2.221-9.852 7.596-16.215 14.925-7.36 8.44-11.884 15.014-15.41 22.298-.767 1.599-1.572 2.932-1.764 2.932-1.227 0 .46-7.685 3.067-13.992 2.952-7.152 12.458-23.764 13.647-23.764 2.223 0 6.172-7.907 10.542-21.144 1.38-4.22 2.913-6.885 4.791-8.262 1.38-1.066 1.61-2.22.499-2.487-.92-.222-3.795 3.02-5.022 5.64-.575 1.2-1.725 4.265-2.53 6.797-3.91 11.949-7.744 19.189-9.239 17.412-.191-.222.115-1.554.767-3.331 1.61-4.131 2.952-10.394 3.45-15.68.882-9.55 1.15-11.282 2.07-14.703 1.074-3.953 4.294-10.039 7.322-13.947 4.178-5.286 11.539-10.572 18.4-13.104 5.712-2.132 13.839-3.776 18.439-3.82 1.84 0 3.182-.755 2.568-1.466-.383-.488-5.328-.266-9.315.355zm-42.819 56.857l-1.073 3.909-1.955.8c-6.67 2.576-14.107 7.95-20.01 14.391-4.409 4.753-5.367 5.064-4.102 1.244.498-1.51 1.648-3.198 3.795-5.686 3.871-4.486 8.51-8.128 15.18-11.993 3.565-2.043 7.667-5.197 8.433-6.44.959-1.51.844-.356-.268 3.775zm-61.258.755c.844.622 3.374 2.221 5.636 3.598 11.04 6.707 18.706 14.57 18.706 19.189 0 .977-.114 1.066-.728.666-.421-.222-2.185-2.043-3.948-4.042-4.754-5.419-11.194-10.127-18.324-13.459l-3.258-1.51-.805-2.576c-.46-1.466-.959-3.332-1.112-4.176l-.268-1.554 1.265 1.377c.728.8 1.993 1.91 2.836 2.487zm58.805 6.619c-.23.533-.345 1.332-.23 1.776.153.667-.154 1.066-1.38 1.822-5.099 2.976-10.274 7.728-20.202 18.522-7.015 7.596-7.897 7.907-4.754 1.688 5.099-10.261 12.114-17.368 22.387-22.787 4.217-2.22 4.83-2.398 4.179-1.021zM52.395 99.5c2.799 1.155 8.587 4.708 11.539 7.107 3.987 3.242 7.552 7.151 10.082 10.971 2.376 3.643 5.405 9.861 5.175 10.661-.115.311-2.453-1.955-5.29-4.975-10.427-11.327-15.487-16.08-20.815-19.545-1.457-.932-2.147-1.643-2.032-2.043.115-.355.038-1.11-.154-1.732-.421-1.288-.498-1.288 1.495-.444zm52.825 11.016c-3.757 6.529-3.987 6.84-6.517 8.484-3.565 2.309-7.59 6.129-11.692 11.149-1.878 2.31-3.565 4.22-3.718 4.22-.537 0 .268-2.488 1.763-5.464 1.802-3.509 9.392-12.793 13.954-17.057 2.721-2.532 9.583-8.129 9.966-8.129.077 0-1.61 3.065-3.756 6.797zm-48.186-1.777c2.3 1.777 7.59 6.929 11.078 10.749 5.175 5.686 9.622 12.793 9.622 15.414 0 .799-.843 0-4.102-3.909-4.83-5.73-6.478-7.285-10.733-10.261-3.028-2.132-3.182-2.31-6.709-8.351-1.954-3.42-3.718-6.485-3.871-6.796-.345-.577 1.303.533 4.715 3.154zm19.665.533c.767.355 2.262.666 3.335.666 1.074 0 2.569-.311 3.335-.666.729-.356 1.419-.666 1.457-.666.077 0-.192 1.021-.613 2.221-.92 2.798-.92 3.642.038 4.664.767.799.767.799-.077 2.398-.498.889-1.571 3.065-2.453 4.842l-1.61 3.198-.46-1.377c-.268-.755-1.15-2.576-1.993-3.998L76.2 117.89l.805-1.244c.69-1.066.728-1.465.383-2.976-.23-.932-.843-2.487-1.38-3.42-1.112-1.866-1.15-1.866.69-.977z"/><path d="M85.324 38.957c-2.913 1.821-4.945 2.044-8.28.844-3.335-1.155-3.948-1.155-5.213 0-1.649 1.51-1.112 3.51.996 3.51 1.266 0 1.419-.667.307-1.333-.422-.267-.69-.667-.575-.933.383-.622 1.802-.489 4.255.533 3.297 1.332 5.789 1.244 8.28-.267 3.259-1.954 5.329-2.354 3.565-.666-.651.622-.766 2.221-.153 2.221.728 0 2.645-2.71 2.645-3.776 0-1.998-2.683-2.043-5.827-.133zM70.412 54.104c-2.146.71-5.06 3.11-6.861 5.73-.729 1.022-2.339 3.154-3.565 4.709l-2.224 2.754.69 1.421c.959 1.955 4.869 6.397 7.245 8.218 6.9 5.33 20.317 5.819 28.713 1.021 4.293-2.443 8.625-7.95 8.625-10.971 0-1.688-1.687-4.22-5.214-7.774-4.906-4.975-8.931-6.307-13.187-4.353-2.415 1.11-3.411 1.11-6.325.045-3.296-1.2-5.826-1.422-7.897-.8zm7.859 2.843l3.412 1.2 2.913-1.2c4.255-1.732 5.712-1.555 9.469 1.333 2.031 1.51 5.903 5.73 5.903 6.396 0 .489-10.389.489-13.992 0-3.718-.489-14.605.533-17.748 1.732-2.569.933-5.636 1.155-6.556.489-.46-.355-.345-.71.575-2.132 1.994-3.02 6.134-7.64 7.475-8.307 1.994-1.021 4.792-.843 8.549.489zm18.554 10.128c3.68 0 4.293.088 4.293.71 0 1.733-3.91 6.441-6.785 8.129-2.76 1.6-8.28 3.02-12.957 3.243-5.405.266-9.162-.578-13.647-3.243-2.607-1.51-6.478-5.286-6.478-6.308 0-.355.805-.532 2.415-.532 1.341 0 3.795-.445 5.481-.933 4.14-1.333 9.086-1.688 16.83-1.377 3.602.177 8.47.31 10.848.31z"/></g></svg>