<svg width="28" height="28" fill="none" xmlns="http://www.w3.org/2000/svg"><path d="M0 14C0 6.268 6.268 0 14 0s14 6.268 14 14-6.268 14-14 14S0 21.732 0 14z" fill="#4C6C91"/><path d="M14.732 18.594s.27-.03.408-.175c.126-.133.122-.385.122-.385s-.017-1.175.539-1.348c.548-.17 1.25 1.136 1.997 1.639.564.38.992.297.992.297l1.995-.028s1.043-.063.549-.868c-.041-.066-.289-.596-1.483-1.684-1.251-1.14-1.083-.955.423-2.926.917-1.2 1.284-1.933 1.169-2.246-.109-.3-.784-.22-.784-.22l-2.245.013s-.166-.022-.29.05c-.12.072-.198.237-.198.237s-.355.929-.83 1.719c-1 1.666-1.399 1.754-1.563 1.65-.38-.24-.285-.968-.285-1.485 0-1.616.25-2.289-.486-2.463-.244-.058-.424-.096-1.048-.103-.801-.008-1.479.003-1.863.188-.256.122-.453.396-.333.412.149.02.485.089.663.327.23.307.222.997.222.997s.132 1.901-.309 2.137c-.302.162-.717-.168-1.609-1.68-.457-.775-.801-1.63-.801-1.63s-.067-.16-.186-.247c-.144-.104-.344-.136-.344-.136l-2.134.014s-.32.008-.438.145c-.105.121-.008.373-.008.373s1.67 3.837 3.562 5.77c1.735 1.773 3.704 1.656 3.704 1.656h.892z" fill="#fff"/></svg>