<svg width="161" height="140" viewBox="0 0 161 161" fill="none" xmlns="http://www.w3.org/2000/svg">
<mask id="mask0_304_83" style="mask-type:alpha" maskUnits="userSpaceOnUse" x="0" y="0" width="161" height="161">
<circle cx="80.5" cy="80.5" r="80.5" fill="white"/>
</mask>
<g mask="url(#mask0_304_83)">
<path d="M155.552 34.2044C138.8 36.8696 126.648 45.0427 119.672 58.3685C116.682 64.0097 115.647 67.963 114.918 76.2694C114.688 78.8901 114.266 81.733 113.96 82.5769C112.733 85.9084 109.705 88.7512 103.418 92.3936C97.9362 95.5473 93.2212 99.1897 88.4294 103.943C83.791 108.562 78.3092 108.873 72.7508 104.92C71.7925 104.253 69.8758 102.654 68.4574 101.366C65.774 98.9232 63.359 97.2352 57.0339 93.3708C48.4088 88.0849 46.9521 86.0416 46.2621 78.3127C45.4187 68.6737 44.307 64.7204 40.4736 58.1464C34.0335 47.086 24.8717 40.2899 11.7998 36.9584C3.7497 34.8707 -3.72542 34.2933 -3.72542 35.7591C-3.72542 36.2477 -3.22708 36.4698 -1.80873 36.5586C2.17801 36.7807 9.42312 38.0689 13.0648 39.135C26.8267 43.1771 36.4869 51.6612 41.8153 64.3206C43.4637 68.2295 44.2304 72.0496 44.7287 79.1566C45.3037 86.8412 46.4537 92.7045 48.4471 97.8571C48.9454 99.1897 49.3671 100.567 49.3671 100.878C49.3671 101.944 47.9488 101.544 46.9521 100.211C45.572 98.3013 42.3903 90.8389 40.4353 85.02C37.5986 76.5359 35.9119 73.3377 33.6119 71.9607C32.5768 71.3389 31.3501 71.4721 31.3501 72.1828C31.3501 72.3605 32.0018 73.0712 32.8068 73.7819C35.2602 75.9585 36.6402 78.4459 38.5186 84.3093C41.777 94.4813 45.572 102.121 47.8337 103.143C49.1754 103.765 49.8654 104.742 54.4655 112.471C59.6023 121.088 63.4357 129.706 64.7007 135.48C65.1224 137.39 65.4674 139.3 65.4674 139.744C65.4674 141.166 64.7007 141.121 64.0107 139.656C62.439 136.324 58.6439 129.839 56.0756 126.152C48.3321 115.092 36.7169 103.321 30.4685 100.211C28.9734 99.4562 28.6668 99.1008 28.1684 97.1908C27.8234 96.0359 26.6734 91.7717 25.6001 87.7295C21.6133 73.0268 18.6999 65.7865 15.5566 62.5883C12.6815 59.6566 6.04974 57.8799 -2.19207 57.791C-10.8172 57.7022 -15.5323 58.5461 -14.7273 60.0564C-14.4973 60.4562 -13.8073 60.5006 -11.7756 60.1452C-8.09549 59.4789 1.87134 59.4789 4.89972 60.1452C6.27974 60.4562 8.57978 61.078 10.0365 61.5666C15.6716 63.5211 18.0866 68.1407 23.6834 87.6851C25.5617 94.2592 27.3251 100.078 27.5934 100.567C27.8618 101.1 28.7051 101.722 29.4335 101.944C32.9985 103.054 39.0553 108.34 46.4537 116.78C53.6222 124.953 57.9539 131.127 61.5956 138.456C63.6657 142.676 64.854 143.609 66.2724 142.099C67.0007 141.343 67.0391 140.944 66.8091 138.59C66.5024 135.169 65.1224 130.416 63.129 125.886C62.2857 123.887 61.6723 122.199 61.749 122.11C62.209 121.577 68.9174 127.84 72.6358 132.326C77.0826 137.701 78.3476 138.545 79.2293 136.635C79.6893 135.702 78.9993 132.415 77.9642 130.638C77.3892 129.572 77.3892 129.572 78.5009 130.061C79.3826 130.461 79.7659 130.416 80.3026 129.839C80.6859 129.484 81.5676 129.039 82.2193 128.906L83.4843 128.64L82.7176 130.283C81.6826 132.504 81.376 134.681 81.951 135.48C82.871 136.768 84.0977 136.235 86.0527 133.792C89.7328 129.173 93.0295 125.664 96.0195 123.132C97.7062 121.755 99.2012 120.6 99.3163 120.6C99.4312 120.6 98.7796 122.465 97.8596 124.686C94.6012 132.682 93.3745 139.123 94.7545 140.722C96.1345 142.321 97.3612 141.388 99.3929 137.257C102.536 130.727 108.593 122.066 114.88 115.092C122.508 106.519 125.498 103.898 130.52 101.189C133.932 99.3674 133.702 99.9004 137.727 85.5086C141.599 71.561 144.512 64.5871 147.502 62.0108C149.189 60.5894 154.594 58.9903 159.692 58.4129C164.024 57.9243 165.787 57.9687 174.911 58.9903C175.831 59.0792 176.137 57.7466 175.294 57.3468C174.949 57.2136 172.304 56.8582 169.391 56.5917C163.219 55.9698 156.741 56.5029 151.45 58.0575C143.784 60.2785 141.484 64.5427 134.66 89.5063C133.51 93.7705 132.437 97.4573 132.245 97.7239C132.092 97.946 130.865 98.7899 129.485 99.545C125.498 101.766 119.633 107.141 113.27 114.47C105.91 122.91 101.386 129.484 97.8596 136.768C97.0929 138.367 96.2879 139.7 96.0962 139.7C94.8695 139.7 96.5562 132.015 99.1629 125.708C102.115 118.556 111.621 101.944 112.81 101.944C115.033 101.944 118.982 94.0371 123.352 80.8001C124.732 76.5803 126.265 73.9152 128.143 72.5382C129.523 71.4721 129.753 70.3172 128.642 70.0507C127.722 69.8286 124.847 73.0712 123.62 75.6919C123.045 76.8913 121.895 79.9562 121.09 82.4881C117.18 94.4368 113.346 101.677 111.851 99.9004C111.66 99.6783 111.966 98.3457 112.618 96.569C114.228 92.438 115.57 86.1749 116.068 80.889C116.95 71.3389 117.218 69.6065 118.138 66.1862C119.212 62.2329 122.432 56.1475 125.46 52.2386C129.638 46.9527 136.999 41.6669 143.86 39.135C149.572 37.0028 157.699 35.3593 162.299 35.3149C164.139 35.3149 165.481 34.5598 164.867 33.8491C164.484 33.3605 159.539 33.5826 155.552 34.2044ZM112.733 91.061L111.66 94.9699L109.705 95.7694C103.035 98.3457 95.5979 103.72 89.6944 110.161C85.286 114.914 84.3277 115.225 85.5927 111.405C86.091 109.895 87.2411 108.207 89.3878 105.719C93.2595 101.233 97.8979 97.5906 104.568 93.7261C108.133 91.6828 112.235 88.5291 113.001 87.2853C113.96 85.7751 113.845 86.93 112.733 91.061ZM51.4755 91.8161C52.3188 92.438 54.8489 94.0371 57.1106 95.4141C68.1507 102.121 75.8175 109.984 75.8175 114.603C75.8175 115.58 75.7025 115.669 75.0892 115.269C74.6675 115.047 72.9042 113.226 71.1408 111.227C66.3874 105.808 59.9473 101.1 52.8172 97.7683L49.5588 96.258L48.7538 93.6817C48.2938 92.2159 47.7954 90.3503 47.6421 89.5063L47.3737 87.9516L48.6388 89.3286C49.3671 90.1282 50.6321 91.2387 51.4755 91.8161ZM110.28 98.4346C110.05 98.9676 109.935 99.7671 110.05 100.211C110.203 100.878 109.896 101.277 108.67 102.033C103.571 105.009 98.3962 109.761 88.4677 120.555C81.4526 128.151 80.5709 128.462 83.7143 122.243C88.8127 111.982 95.8279 104.875 106.101 99.4562C110.318 97.2352 110.931 97.0576 110.28 98.4346ZM52.3955 99.5006C55.1939 100.656 60.9823 104.209 63.934 106.608C67.9207 109.85 71.4858 113.759 74.0158 117.579C76.3925 121.222 79.4209 127.44 79.1909 128.24C79.0759 128.551 76.7376 126.285 73.9008 123.265C63.474 111.938 58.4139 107.185 53.0855 103.72C51.6288 102.788 50.9388 102.077 51.0538 101.677C51.1688 101.322 51.0921 100.567 50.9005 99.9448C50.4788 98.6567 50.4021 98.6567 52.3955 99.5006ZM105.22 110.517C101.463 117.046 101.233 117.357 98.7029 119.001C95.1379 121.31 91.1128 125.13 87.0111 130.15C85.1327 132.46 83.446 134.37 83.2927 134.37C82.756 134.37 83.561 131.882 85.056 128.906C86.8577 125.397 94.4478 116.113 99.0096 111.849C101.731 109.317 108.593 103.72 108.976 103.72C109.053 103.72 107.366 106.785 105.22 110.517ZM57.0339 108.74C59.3339 110.517 64.624 115.669 68.1124 119.489C73.2875 125.175 77.7342 132.282 77.7342 134.903C77.7342 135.702 76.8909 134.903 73.6325 130.994C68.8024 125.264 67.1541 123.709 62.899 120.733C59.8706 118.601 59.7173 118.423 56.1905 112.382C54.2355 108.962 52.4722 105.897 52.3188 105.586C51.9738 105.009 53.6222 106.119 57.0339 108.74ZM76.6992 109.273C77.4659 109.628 78.9609 109.939 80.0343 109.939C81.1076 109.939 82.6027 109.628 83.3693 109.273C84.0977 108.917 84.7877 108.607 84.826 108.607C84.9027 108.607 84.6343 109.628 84.2127 110.828C83.2927 113.626 83.2927 114.47 84.251 115.492C85.0177 116.291 85.0177 116.291 84.1743 117.89C83.676 118.779 82.6026 120.955 81.721 122.732L80.1109 125.93L79.6509 124.553C79.3826 123.798 78.5009 121.977 77.6576 120.555L76.2009 117.89L77.0059 116.646C77.6959 115.58 77.7342 115.181 77.3892 113.67C77.1592 112.738 76.5459 111.183 76.0092 110.25C74.8975 108.384 74.8592 108.384 76.6992 109.273Z" fill="#F9F9F9"/>
<path d="M85.3243 38.9572C82.4109 40.7784 80.3792 41.0005 77.0442 39.8012C73.7091 38.6463 73.0958 38.6463 71.8308 39.8012C70.1824 41.3114 70.7191 43.3103 72.8274 43.3103C74.0925 43.3103 74.2458 42.644 73.1341 41.9777C72.7124 41.7112 72.4441 41.3114 72.5591 41.0449C72.9424 40.4231 74.3608 40.5563 76.8142 41.578C80.1109 42.9105 82.6026 42.8217 85.0943 41.3114C88.3527 39.357 90.4227 38.9572 88.6594 40.6452C88.0077 41.267 87.8927 42.8661 88.506 42.8661C89.2344 42.8661 91.1511 40.1566 91.1511 39.0905C91.1511 37.0916 88.4677 37.0472 85.3243 38.9572Z" fill="#F9F9F9"/>
<path d="M70.4125 54.1042C68.2658 54.8149 65.3524 57.2136 63.5507 59.8343C62.8224 60.8559 61.2124 62.988 59.9857 64.5427L57.7623 67.2967L58.4523 68.7181C59.4107 70.6726 63.3207 75.1145 65.6974 76.9357C72.5976 82.266 86.0144 82.7546 94.4096 77.9573C98.703 75.5142 103.035 70.0063 103.035 66.9858C103.035 65.2978 101.348 62.7659 97.8213 59.2124C92.9146 54.2375 88.8895 52.9049 84.6344 54.8593C82.2194 55.9698 81.2227 55.9698 78.3093 54.9038C75.0126 53.7044 72.4826 53.4823 70.4125 54.1042ZM78.271 56.947L81.6827 58.1464L84.5961 56.947C88.8512 55.2147 90.3078 55.3924 94.0646 58.2796C96.0963 59.7899 99.968 64.0097 99.968 64.676C99.968 65.1646 89.5795 65.1646 85.9761 64.676C82.2577 64.1874 71.3709 65.209 68.2275 66.4083C65.6591 67.3411 62.5924 67.5632 61.6724 66.8969C61.2124 66.5416 61.3274 66.1862 62.2474 64.7648C64.2408 61.7443 68.3808 57.1247 69.7225 56.4584C71.7159 55.4368 74.5143 55.6145 78.271 56.947ZM96.8246 67.0746C100.505 67.0746 101.118 67.1634 101.118 67.7853C101.118 69.5177 97.208 74.2261 94.3329 75.914C91.5729 77.5131 86.0528 78.9345 81.376 79.1566C75.9709 79.4231 72.2142 78.5792 67.7291 75.914C65.1224 74.4038 61.2507 70.6281 61.2507 69.6065C61.2507 69.2511 62.0557 69.0735 63.6657 69.0735C65.0074 69.0735 67.4608 68.6293 69.1475 68.1407C73.2876 66.8081 78.2326 66.4527 85.9761 66.7637C89.5795 66.9413 94.4479 67.0746 96.8246 67.0746Z" fill="#F9F9F9"/>
</g>
</svg>
