<svg width="93" height="82" fill="none" xmlns="http://www.w3.org/2000/svg"><path d="M44.807 39.69c1.07 1.113 2.811 1.113 3.896 0L65.34 22.516c4.827-4.992 4.552-13.264-.856-17.865C59.78.635 52.767 1.357 48.46 5.809l-1.711 1.76-1.696-1.745C40.744 1.357 33.732.635 29.026 4.65c-5.392 4.601-5.683 12.873-.855 17.865L44.807 39.69zM89.11 51.36c-1.802-1.609-4.613-1.504-6.507 0L68.487 62.474a9.823 9.823 0 01-6.111 2.105H44.303c-1.344 0-2.444-1.083-2.444-2.406 0-1.324 1.1-2.406 2.444-2.406h11.962c2.43 0 4.69-1.64 5.087-4 .505-3.008-1.848-5.625-4.827-5.625H32.082a18.157 18.157 0 00-11.32 3.955l-7.104 5.67H5.194c-1.344 0-2.444 1.082-2.444 2.406V76.61c0 1.323 1.1 2.406 2.444 2.406h54.508c2.216 0 4.37-.737 6.111-2.106l23.099-18.196a4.762 4.762 0 00.198-7.354z" stroke="#C7DF9E" stroke-width="4"/></svg>