<svg width="79" height="81" fill="none" xmlns="http://www.w3.org/2000/svg"><path d="M76.452 28.968c.035.166.065.338.03.503-.075.365-.385.224-.66.106-2.013-.864-4.033-1.71-6.025-2.619-.63-.282-.875-.158-1.187.465-7.708 15.434-18.286 28.325-32.444 37.984a75.186 75.186 0 01-30.427 12.21c-.905.15-1.814.283-2.724.397v0c-.264.03-.37-.482-.13-.593a.302.302 0 01.01-.004c17.797-7.44 31.004-20.186 40.672-36.985 3.63-6.304 6.377-13.018 8.505-19.999.294-.96.29-.966-.63-1.363-1.587-.683-3.18-1.358-4.762-2.053v0c-.326-.143-.373-.702-.069-.887v0c7.575-4.633 15.152-9.26 22.732-13.883.626-.38.752-.324.925.415 2.064 8.77 4.125 17.538 6.184 26.306v0z" stroke="#C7DF9E" stroke-width="4"/></svg>