<svg width="67" height="97" fill="none" xmlns="http://www.w3.org/2000/svg"><path fill-rule="evenodd" clip-rule="evenodd" d="M33.5 10.64c-13.534 0-22.91 9.718-22.91 21.563 0 5.658 2.43 9.344 5.637 13.248l1.225 1.455c1.277 1.518 2.692 3.197 3.855 4.876 1.626 2.363 3.075 5.152 3.556 8.568a4.325 4.325 0 01-.887 3.1 4.282 4.282 0 01-5.9.842 4.315 4.315 0 01-1.712-2.73c-.23-1.62-.934-3.145-2.12-4.87a49.952 49.952 0 00-3.103-3.91c-.481-.574-.991-1.178-1.535-1.84C6.015 46.578 2 40.92 2 32.203 2 15.298 15.534 2.016 33.5 2.016c17.967 0 31.5 13.282 31.5 30.187 0 8.717-4.015 14.375-7.606 18.74-.544.66-1.054 1.265-1.535 1.834-1.185 1.408-2.193 2.604-3.098 3.915-1.192 1.725-1.89 3.25-2.12 4.87a4.322 4.322 0 01-1.674 2.841 4.288 4.288 0 01-3.185.82 4.286 4.286 0 01-2.829-1.682 4.32 4.32 0 01-.816-3.197c.48-3.41 1.93-6.199 3.556-8.562 1.163-1.68 2.578-3.358 3.855-4.876.43-.506.842-.995 1.22-1.455 3.213-3.904 5.641-7.59 5.641-13.248 0-11.845-9.376-21.562-22.909-21.562zM22.046 89.704c0-1.144.452-2.24 1.258-3.05a4.287 4.287 0 013.037-1.262h14.318c1.14 0 2.232.454 3.037 1.263a4.321 4.321 0 010 6.099 4.287 4.287 0 01-3.037 1.263H26.341a4.287 4.287 0 01-3.037-1.263 4.321 4.321 0 01-1.258-3.05zm-1.432-18.687c-1.14 0-2.232.454-3.038 1.263a4.321 4.321 0 000 6.099 4.287 4.287 0 003.038 1.263h25.772a4.29 4.29 0 003.038-1.263 4.321 4.321 0 000-6.1 4.287 4.287 0 00-3.038-1.262H20.614z" fill="#C7DF9E" stroke="#fff" stroke-width="4"/></svg>